# Blender v2.76 (sub 0) OBJ File: 'SciFiHangar_009_UVUNRWAPPINGVERSION.blend'
# www.blender.org
mtllib SciFiHangar_009_UVUNRWAPPINGVERSION_LargeCrate.mtl
o Storage_Crate_Cube.009
v -6.889849 0.880635 -6.671028
v -6.910037 0.844438 -6.709700
v -6.921658 0.844438 -6.688304
v -6.904830 0.880635 -6.716918
v -6.904830 0.849250 -6.716918
v -6.870735 0.844571 -6.706220
v -6.896911 0.844571 -6.720437
v -7.659160 0.880635 -7.088866
v -7.274505 0.880635 -6.879947
v -7.615731 0.844438 -7.092986
v -7.627352 0.844438 -7.071589
v -7.274505 0.844438 -6.879947
v -7.262884 0.844438 -6.901343
v -7.612511 0.880635 -7.101283
v -7.258671 0.880635 -6.909100
v -7.612511 0.849250 -7.101283
v -7.258671 0.849250 -6.909100
v -7.640046 0.844571 -7.124058
v -7.613870 0.844571 -7.109841
v -6.889849 0.005177 -6.671028
v -6.889849 0.442906 -6.671028
v -6.910037 0.041374 -6.709700
v -6.921658 0.041374 -6.688304
v -6.921658 0.442906 -6.688304
v -6.910037 0.442906 -6.709700
v -6.904830 0.005177 -6.716918
v -6.904830 0.036562 -6.716918
v -6.870735 0.041241 -6.706220
v -6.870735 0.442906 -6.706220
v -6.896911 0.041241 -6.720437
v -6.896911 0.442906 -6.720437
v -7.659160 0.005177 -7.088866
v -7.274505 0.005177 -6.879947
v -7.659160 0.442906 -7.088866
v -7.615731 0.041374 -7.092986
v -7.627352 0.041374 -7.071589
v -7.274505 0.041374 -6.879947
v -7.627352 0.442906 -7.071589
v -7.262884 0.041374 -6.901343
v -7.615731 0.442906 -7.092986
v -7.262884 0.442906 -6.901343
v -7.612511 0.005177 -7.101283
v -7.258671 0.005177 -6.909100
v -7.612511 0.036562 -7.101283
v -7.258671 0.036562 -6.909100
v -7.640046 0.041241 -7.124058
v -7.640046 0.442906 -7.124058
v -7.613870 0.041241 -7.109841
v -7.613870 0.442906 -7.109841
v -5.644717 0.880635 -8.963530
v -5.688146 0.844438 -8.959410
v -6.267283 0.880635 -7.817278
v -6.298098 0.849250 -7.834015
v -6.293459 0.844571 -7.831495
v -5.676525 0.844438 -8.980805
v -6.298098 0.880635 -7.834015
v -5.691366 0.880635 -8.951113
v -5.691366 0.849250 -8.951113
v -6.267283 0.844571 -7.817278
v -5.663831 0.844571 -8.928337
v -5.690007 0.844571 -8.942554
v -6.414028 0.880635 -9.381367
v -6.029372 0.880635 -9.172448
v -6.393840 0.844438 -9.342695
v -7.036594 0.880635 -8.235116
v -7.005779 0.849250 -8.218380
v -7.010418 0.844571 -8.220900
v -6.382219 0.844438 -9.364091
v -6.029372 0.844438 -9.172448
v -7.005779 0.880635 -8.218380
v -6.040993 0.844438 -9.151052
v -6.399047 0.880635 -9.335477
v -6.045206 0.880635 -9.143295
v -6.399047 0.849250 -9.335477
v -6.045206 0.849250 -9.143295
v -6.651938 0.849250 -8.026197
v -7.036594 0.844571 -8.235116
v -6.433142 0.844571 -9.346174
v -6.406966 0.844571 -9.331958
v -5.644717 0.005177 -8.963530
v -5.644717 0.442906 -8.963530
v -5.688146 0.041374 -8.959410
v -6.267283 0.005177 -7.817278
v -6.298098 0.036562 -7.834015
v -6.293459 0.041241 -7.831495
v -5.676525 0.041374 -8.980805
v -5.676525 0.442906 -8.980805
v -6.298098 0.005177 -7.834015
v -5.688146 0.442906 -8.959410
v -5.691366 0.005177 -8.951113
v -5.691366 0.036562 -8.951113
v -6.267283 0.041241 -7.817278
v -5.663831 0.041241 -8.928337
v -5.663831 0.442906 -8.928337
v -5.690007 0.041241 -8.942554
v -5.690007 0.442906 -8.942554
v -6.293459 0.442906 -7.831495
v -6.414028 0.005177 -9.381367
v -6.029372 0.005177 -9.172448
v -6.414028 0.442906 -9.381367
v -6.393840 0.041374 -9.342695
v -7.036594 0.005177 -8.235116
v -7.005779 0.036562 -8.218380
v -7.010418 0.041241 -8.220900
v -6.382219 0.041374 -9.364091
v -6.029372 0.041374 -9.172448
v -6.382219 0.442906 -9.364091
v -7.005779 0.005177 -8.218380
v -6.040993 0.041374 -9.151052
v -6.393840 0.442906 -9.342695
v -6.040993 0.442906 -9.151052
v -6.399047 0.005177 -9.335477
v -6.045206 0.005177 -9.143295
v -6.399047 0.036562 -9.335477
v -6.045206 0.036562 -9.143295
v -6.651938 0.036562 -8.026197
v -7.036594 0.041241 -8.235116
v -6.433142 0.041241 -9.346174
v -6.433142 0.442906 -9.346174
v -6.406966 0.041241 -9.331958
v -6.406966 0.442906 -9.331958
v -7.010418 0.442906 -8.220900
vt 0.538593 0.885541
vt 0.688302 0.885593
vt 0.675918 0.897968
vt 0.538589 0.897921
vt 0.571439 0.681700
vt 0.125311 0.681699
vt 0.139007 0.669365
vt 0.571439 0.669366
vt 0.571439 0.693693
vt 0.136658 0.693693
vt 0.331484 0.880865
vt 0.194154 0.880818
vt 0.194157 0.872490
vt 0.331487 0.872537
vt 0.343859 0.893249
vt 0.194149 0.893198
vt 0.977572 0.887603
vt 0.840242 0.887556
vt 0.840290 0.750226
vt 0.977620 0.750273
vt 0.675915 0.906296
vt 0.538586 0.906248
vt 0.194145 0.904544
vt 0.331862 0.904592
vt 0.331859 0.915326
vt 0.194142 0.915278
vt 0.050015 0.307432
vt 0.484795 0.307432
vt 0.484796 0.445149
vt 0.050015 0.445149
vt 0.571439 0.704427
vt 0.136658 0.704427
vt 0.139007 0.659178
vt 0.571439 0.659179
vt 0.538598 0.871844
vt 0.675973 0.871891
vt 0.930018 0.289319
vt 0.497588 0.289319
vt 0.497588 0.151943
vt 0.930018 0.151943
vt 0.538601 0.861656
vt 0.675976 0.861703
vt 0.538593 0.945908
vt 0.538597 0.933527
vt 0.675927 0.933575
vt 0.688302 0.945959
vt 0.572325 0.620264
vt 0.572325 0.632598
vt 0.139895 0.632598
vt 0.126199 0.620264
vt 0.137545 0.608271
vt 0.572325 0.608270
vt 0.056824 0.880770
vt 0.056827 0.872443
vt 0.044440 0.893146
vt 0.702912 0.887508
vt 0.702960 0.750178
vt 0.538599 0.925200
vt 0.675930 0.925247
vt 0.056426 0.915231
vt 0.056429 0.904497
vt 0.050015 0.582866
vt 0.484796 0.582866
vt 0.137545 0.597537
vt 0.572325 0.597536
vt 0.572325 0.642786
vt 0.139895 0.642785
vt 0.675963 0.959652
vt 0.538588 0.959604
vt 0.930018 0.306750
vt 0.930018 0.444126
vt 0.497588 0.444126
vt 0.497588 0.306750
vt 0.675960 0.969840
vt 0.538584 0.969792
vt 0.401259 0.897873
vt 0.388883 0.885489
vt 0.572325 0.747887
vt 0.572325 0.760221
vt 0.139895 0.760221
vt 0.126199 0.747887
vt 0.137545 0.735894
vt 0.572325 0.735893
vt 0.334241 0.963121
vt 0.334241 0.971448
vt 0.196912 0.971448
vt 0.196912 0.963121
vt 0.346621 0.950741
vt 0.196912 0.950741
vt 0.977667 0.612943
vt 0.840337 0.612896
vt 0.401256 0.906201
vt 0.196912 0.939394
vt 0.196912 0.928660
vt 0.334628 0.928660
vt 0.334628 0.939394
vt 0.050015 0.290001
vt 0.050015 0.152284
vt 0.484796 0.152284
vt 0.484796 0.290001
vt 0.137545 0.725160
vt 0.572325 0.725159
vt 0.572325 0.770409
vt 0.139895 0.770408
vt 0.401222 0.871796
vt 0.930018 0.014568
vt 0.497588 0.014568
vt 0.401226 0.861609
vt 0.388883 0.945856
vt 0.401267 0.933480
vt 0.571439 0.809323
vt 0.125311 0.809322
vt 0.139007 0.796988
vt 0.571439 0.796989
vt 0.571439 0.821316
vt 0.136658 0.821316
vt 0.059582 0.963121
vt 0.059582 0.971448
vt 0.047202 0.950741
vt 0.703007 0.612848
vt 0.401270 0.925153
vt 0.059195 0.939394
vt 0.059195 0.928660
vt 0.050015 0.014568
vt 0.484796 0.014568
vt 0.571439 0.832050
vt 0.136658 0.832050
vt 0.139007 0.786800
vt 0.571439 0.786802
vt 0.401213 0.959557
vt 0.930018 0.581501
vt 0.497588 0.581501
vt 0.401209 0.969745
vn -0.477300 0.000000 0.878800
vn 0.878800 0.000000 0.477300
vn 0.000000 1.000000 0.000000
vn 0.000000 -1.000000 0.000000
vn -0.878800 0.000000 -0.477300
vn 0.477300 0.000000 -0.878800
vn 0.878700 0.000000 0.477300
vn 0.477300 0.000000 -0.878700
vn -0.477300 0.000000 0.878700
vn -0.878700 0.000000 -0.477300
usemtl StorageContainerMat
s off
f 21/1/1 1/2/1 3/3/1 24/4/1
f 52/5/2 1/6/2 6/7/2 59/8/2
f 1/6/3 52/5/3 56/9/3 4/10/3
f 3/11/4 12/12/4 13/13/4 2/14/4
f 1/15/1 9/16/1 12/12/1 3/11/1
f 2/17/1 13/18/1 41/19/1 25/20/1
f 24/4/5 3/3/5 2/21/5 25/22/5
f 15/23/6 4/24/6 5/25/6 17/26/6
f 9/16/3 1/15/3 4/24/3 15/23/3
f 5/27/3 53/28/3 76/29/3 17/30/3
f 4/10/5 56/9/5 53/31/5 5/32/5
f 59/8/4 6/7/4 7/33/4 54/34/4
f 1/2/7 21/1/7 29/35/7 6/36/7
f 54/37/2 7/38/2 31/39/2 97/40/2
f 6/36/8 29/35/8 31/41/8 7/42/8
f 34/43/9 38/44/9 11/45/9 8/46/9
f 65/47/5 77/48/5 18/49/5 8/50/5
f 8/50/3 14/51/3 70/52/3 65/47/3
f 11/53/4 10/54/4 13/13/4 12/12/4
f 8/55/1 11/53/1 12/12/1 9/16/1
f 10/56/1 40/57/1 41/19/1 13/18/1
f 38/44/7 40/58/7 10/59/7 11/45/7
f 15/23/6 17/26/6 16/60/6 14/61/6
f 9/16/3 15/23/3 14/61/3 8/55/3
f 16/62/3 17/30/3 76/29/3 66/63/3
f 14/51/2 16/64/2 66/65/2 70/52/2
f 77/48/4 67/66/4 19/67/4 18/49/4
f 8/46/5 18/68/5 47/69/5 34/43/5
f 67/70/5 122/71/5 49/72/5 19/73/5
f 18/68/6 19/74/6 49/75/6 47/69/6
f 21/1/1 24/4/1 23/76/1 20/77/1
f 83/78/2 92/79/2 28/80/2 20/81/2
f 20/81/4 26/82/4 88/83/4 83/78/4
f 23/84/3 22/85/3 39/86/3 37/87/3
f 20/88/1 23/84/1 37/87/1 33/89/1
f 22/90/1 25/20/1 41/19/1 39/91/1
f 24/4/5 25/22/5 22/92/5 23/76/5
f 43/93/6 45/94/6 27/95/6 26/96/6
f 33/89/4 43/93/4 26/96/4 20/88/4
f 27/97/4 45/98/4 116/99/4 84/100/4
f 26/82/5 27/101/5 84/102/5 88/83/5
f 92/79/3 85/103/3 30/104/3 28/80/3
f 20/77/2 28/105/2 29/35/2 21/1/2
f 85/106/2 97/40/2 31/39/2 30/107/2
f 28/105/8 30/108/8 31/41/8 29/35/8
f 34/43/9 32/109/9 36/110/9 38/44/9
f 102/111/5 32/112/5 46/113/5 117/114/5
f 32/112/4 102/111/4 108/115/4 42/116/4
f 36/117/3 37/87/3 39/86/3 35/118/3
f 32/119/1 33/89/1 37/87/1 36/117/1
f 35/120/1 39/91/1 41/19/1 40/57/1
f 38/44/7 36/110/7 35/121/7 40/58/7
f 43/93/6 42/122/6 44/123/6 45/94/6
f 33/89/4 32/119/4 42/122/4 43/93/4
f 44/124/4 103/125/4 116/99/4 45/98/4
f 42/116/2 108/115/2 103/126/2 44/127/2
f 117/114/3 46/113/3 48/128/3 104/129/3
f 32/109/5 34/43/5 47/69/5 46/130/5
f 104/131/5 48/132/5 49/72/5 122/71/5
f 46/130/6 47/69/6 49/75/6 48/133/6
f 81/1/8 87/4/8 55/3/8 50/2/8
f 52/5/2 59/8/2 60/7/2 50/6/2
f 50/6/3 57/10/3 56/9/3 52/5/3
f 55/11/4 51/14/4 71/13/4 69/12/4
f 50/15/6 55/11/6 69/12/6 63/16/6
f 51/17/6 89/20/6 111/19/6 71/18/6
f 87/4/10 89/22/10 51/21/10 55/3/10
f 73/23/1 75/26/1 58/25/1 57/24/1
f 63/16/3 73/23/3 57/24/3 50/15/3
f 58/27/3 75/30/3 76/29/3 53/28/3
f 57/10/5 58/32/5 53/31/5 56/9/5
f 59/8/4 54/34/4 61/33/4 60/7/4
f 50/2/2 60/36/2 94/35/2 81/1/2
f 54/37/2 97/40/2 96/39/2 61/38/2
f 60/36/1 61/42/1 96/41/1 94/35/1
f 100/43/6 62/46/6 68/45/6 107/44/6
f 65/47/5 62/50/5 78/49/5 77/48/5
f 62/50/3 65/47/3 70/52/3 72/51/3
f 68/53/4 69/12/4 71/13/4 64/54/4
f 62/55/6 63/16/6 69/12/6 68/53/6
f 64/56/6 71/18/6 111/19/6 110/57/6
f 107/44/7 68/45/7 64/59/7 110/58/7
f 73/23/1 72/61/1 74/60/1 75/26/1
f 63/16/3 62/55/3 72/61/3 73/23/3
f 74/62/3 66/63/3 76/29/3 75/30/3
f 72/51/2 70/52/2 66/65/2 74/64/2
f 77/48/4 78/49/4 79/67/4 67/66/4
f 62/46/5 100/43/5 119/69/5 78/68/5
f 67/70/5 79/73/5 121/72/5 122/71/5
f 78/68/1 119/69/1 121/75/1 79/74/1
f 81/1/8 80/77/8 86/76/8 87/4/8
f 83/78/2 80/81/2 93/80/2 92/79/2
f 80/81/4 83/78/4 88/83/4 90/82/4
f 86/84/3 106/87/3 109/86/3 82/85/3
f 80/88/6 99/89/6 106/87/6 86/84/6
f 82/90/6 109/91/6 111/19/6 89/20/6
f 87/4/10 86/76/10 82/92/10 89/22/10
f 113/93/1 90/96/1 91/95/1 115/94/1
f 99/89/4 80/88/4 90/96/4 113/93/4
f 91/97/4 84/100/4 116/99/4 115/98/4
f 90/82/5 88/83/5 84/102/5 91/101/5
f 92/79/3 93/80/3 95/104/3 85/103/3
f 80/77/2 81/1/2 94/35/2 93/105/2
f 85/106/2 95/107/2 96/39/2 97/40/2
f 93/105/1 94/35/1 96/41/1 95/108/1
f 100/43/6 107/44/6 105/110/6 98/109/6
f 102/111/5 117/114/5 118/113/5 98/112/5
f 98/112/4 112/116/4 108/115/4 102/111/4
f 105/117/3 101/118/3 109/86/3 106/87/3
f 98/119/6 105/117/6 106/87/6 99/89/6
f 101/120/6 110/57/6 111/19/6 109/91/6
f 107/44/7 110/58/7 101/121/7 105/110/7
f 113/93/1 115/94/1 114/123/1 112/122/1
f 99/89/4 113/93/4 112/122/4 98/119/4
f 114/124/4 115/98/4 116/99/4 103/125/4
f 112/116/2 114/127/2 103/126/2 108/115/2
f 117/114/3 104/129/3 120/128/3 118/113/3
f 98/109/5 118/130/5 119/69/5 100/43/5
f 104/131/5 122/71/5 121/72/5 120/132/5
f 118/130/1 120/133/1 121/75/1 119/69/1
