# Blender v2.75 (sub 0) OBJ File: 'Wings.blend'
# www.blender.org
mtllib Fin03.mtl
o Fin03_Cube.002
v 0.029016 -1.000000 1.000000
v 0.029016 3.164328 -1.472150
v 0.077752 -1.000000 -2.107567
v 0.077752 3.164328 -3.029246
v 0.077752 -0.374591 -2.245987
v 0.029016 -0.374591 0.791305
v 0.077752 1.984688 -2.768160
v 0.077752 0.805049 -2.507073
v 0.029016 1.984688 -0.717665
v 0.029016 0.805049 0.036820
v 0.298422 0.805049 -2.507073
v 0.298422 -0.374591 -2.245987
v 0.111368 0.805049 0.036820
v 0.111368 -0.374591 0.791305
v 0.140014 3.164328 -3.029246
v 0.092225 3.164328 -1.472150
v 0.140014 1.984688 -2.768160
v 0.092225 1.984688 -0.717665
v -0.029016 -1.000000 1.000000
v -0.029016 3.164328 -1.472150
v -0.077752 -1.000000 -2.107567
v -0.077752 3.164328 -3.029246
v -0.077752 -0.374591 -2.245987
v -0.029016 -0.374591 0.791305
v -0.077752 1.984688 -2.768160
v -0.077752 0.805049 -2.507073
v -0.029016 1.984688 -0.717665
v -0.029016 0.805049 0.036820
v -0.298422 0.805049 -2.507073
v -0.298422 -0.374591 -2.245987
v -0.111368 0.805049 0.036820
v -0.111368 -0.374591 0.791305
v -0.140014 3.164328 -3.029246
v -0.092225 3.164328 -1.472150
v -0.140014 1.984688 -2.768160
v -0.092225 1.984688 -0.717665
v 0.000000 3.164328 -3.029246
v 0.000000 -1.000000 -2.107567
v 0.000000 3.164328 -1.472150
v 0.000000 -1.000000 1.000000
v 0.000000 -0.374591 0.791305
v 0.000000 -0.374591 -2.245987
v 0.000000 1.984688 -2.768160
v 0.000000 0.805049 -2.507073
v 0.000000 1.984689 -0.717665
v 0.000000 0.805049 0.036820
vt 0.876078 0.591981
vt 0.888538 0.591981
vt 0.888538 0.694628
vt 0.876078 0.694628
vt 0.653424 0.169696
vt 0.096141 0.184101
vt 0.054893 0.070353
vt 0.625068 0.055616
vt 0.011150 0.976391
vt 0.509144 0.976391
vt 0.509144 0.988850
vt 0.011150 0.981040
vt 0.876078 0.398374
vt 0.888538 0.398374
vt 0.694972 0.467876
vt 0.229297 0.433572
vt 0.230696 0.418523
vt 0.698720 0.427553
vt 0.876078 0.011150
vt 0.888538 0.011150
vt 0.888538 0.204764
vt 0.876078 0.204764
vt 0.726847 0.687298
vt 0.351454 0.659659
vt 0.096773 0.199201
vt 0.655120 0.210158
vt 0.923899 0.398374
vt 0.923900 0.591981
vt 0.950848 0.341159
vt 0.950848 0.116783
vt 0.964043 0.116783
vt 0.964044 0.341159
vt 0.758263 0.918115
vt 0.473134 0.897277
vt 0.350877 0.671244
vt 0.726279 0.698710
vt 0.955397 0.966111
vt 0.705751 0.966262
vt 0.706062 0.956138
vt 0.955703 0.956138
vt 0.950851 0.789981
vt 0.950849 0.565558
vt 0.960980 0.565558
vt 0.960981 0.789981
vt 0.898515 0.011150
vt 0.898515 0.204764
vt 0.946200 0.565558
vt 0.946199 0.341159
vt 0.946200 0.789981
vt 0.946199 0.116783
vt 0.955015 0.978565
vt 0.705608 0.970910
vt 0.946199 0.011150
vt 0.950848 0.011150
vn 0.000000 -0.216100 -0.976400
vn 0.999900 0.004400 0.015900
vn 0.000000 -1.000000 0.000000
vn 0.000000 1.000000 -0.000000
vn 0.999700 0.009100 0.021200
vn 0.997300 0.028800 0.066900
vn -0.000000 0.538800 0.842400
vn 0.999600 0.011400 0.026500
vn 0.000000 0.316500 0.948600
vn -0.999900 0.004400 0.015900
vn -0.999700 0.009100 0.021200
vn -0.997300 0.028800 0.066900
vn -0.999600 0.011400 0.026500
usemtl None
s off
f 42/1/1 5/2/1 3/3/1 38/4/1
f 5/5/2 6/6/2 1/7/2 3/8/2
f 40/9/3 38/10/3 3/11/3 1/12/3
f 44/13/1 8/14/1 5/2/1 42/1/1
f 8/15/4 10/16/4 13/17/4 11/18/4
f 37/19/1 4/20/1 7/21/1 43/22/1
f 43/22/1 7/21/1 8/14/1 44/13/1
f 7/23/5 9/24/5 10/16/5 8/15/5
f 11/18/6 13/17/6 14/25/6 12/26/6
f 5/2/1 8/14/1 11/27/1 12/28/1
f 6/6/3 5/5/3 12/26/3 14/25/3
f 10/29/7 6/30/7 14/31/7 13/32/7
f 15/33/8 16/34/8 18/35/8 17/36/8
f 4/37/4 2/38/4 16/39/4 15/40/4
f 9/24/3 7/23/3 17/36/3 18/35/3
f 2/41/7 9/42/7 18/43/7 16/44/7
f 7/21/1 4/20/1 15/45/1 17/46/1
f 9/42/7 45/47/7 46/48/7 10/29/7
f 2/41/7 39/49/7 45/47/7 9/42/7
f 10/29/7 46/48/7 41/50/7 6/30/7
f 2/38/4 4/37/4 37/51/4 39/52/4
f 6/30/9 41/50/9 40/53/9 1/54/9
f 42/1/1 38/4/1 21/3/1 23/2/1
f 23/5/10 21/8/10 19/7/10 24/6/10
f 40/9/3 19/12/3 21/11/3 38/10/3
f 44/13/1 42/1/1 23/2/1 26/14/1
f 26/15/4 29/18/4 31/17/4 28/16/4
f 37/19/1 43/22/1 25/21/1 22/20/1
f 43/22/1 44/13/1 26/14/1 25/21/1
f 25/23/11 26/15/11 28/16/11 27/24/11
f 29/18/12 30/26/12 32/25/12 31/17/12
f 23/2/1 30/28/1 29/27/1 26/14/1
f 24/6/3 32/25/3 30/26/3 23/5/3
f 28/29/7 31/32/7 32/31/7 24/30/7
f 33/33/13 35/36/13 36/35/13 34/34/13
f 22/37/4 33/40/4 34/39/4 20/38/4
f 27/24/3 36/35/3 35/36/3 25/23/3
f 20/41/7 34/44/7 36/43/7 27/42/7
f 25/21/1 35/46/1 33/45/1 22/20/1
f 27/42/7 28/29/7 46/48/7 45/47/7
f 20/41/7 27/42/7 45/47/7 39/49/7
f 28/29/7 24/30/7 41/50/7 46/48/7
f 20/38/4 39/52/4 37/51/4 22/37/4
f 24/30/9 19/54/9 40/53/9 41/50/9
