# Blender v2.75 (sub 0) OBJ File: 'Wings.blend'
# www.blender.org
mtllib Fin02.mtl
o Fin02_Cube.001
v 0.096406 -1.002285 1.000000
v 0.096406 -0.425385 1.129196
v 0.096406 -1.002285 -0.136301
v 0.096406 -0.425385 -0.265497
v 0.096406 2.775381 -1.129196
v 0.096406 2.775381 -0.130788
v 0.096406 -0.425385 -0.844683
v 0.096406 2.775381 -1.505159
v 0.096406 -0.425385 -3.252878
v 0.096406 2.775381 -1.708382
v 0.096406 -1.002285 -2.480630
v 0.096406 -1.002285 -3.527230
v 0.096406 -0.092313 -0.505986
v 0.096406 -0.292738 -0.451968
v 0.096406 -0.092313 -0.749091
v 0.096406 -0.292738 -0.716539
v 0.969088 -1.005831 -0.505986
v 0.768663 -1.005831 -0.451968
v 0.969088 -1.005831 -0.749091
v 0.768663 -1.005831 -0.716539
v -0.096406 -1.002285 1.000000
v -0.096406 -0.425385 1.129196
v -0.096406 -1.002285 -0.136301
v -0.096406 -0.425385 -0.265497
v -0.096406 2.775381 -1.129196
v -0.096406 2.775381 -0.130788
v -0.096406 -0.425385 -0.844683
v -0.096406 2.775381 -1.505159
v -0.096406 -0.425385 -3.252878
v -0.096406 2.775381 -1.708382
v -0.096406 -1.002285 -2.480630
v -0.096406 -1.002285 -3.527230
v 0.000000 -0.425385 -0.265497
v 0.000000 -1.002285 -0.136301
v 0.000000 -0.425385 1.129196
v 0.000000 -1.002285 1.000000
v 0.000000 2.775381 -1.129196
v 0.000000 2.775381 -0.130788
v 0.000000 -0.425385 -0.844683
v 0.000000 2.775381 -1.505159
v 0.000000 -0.425385 -3.252878
v 0.000000 2.775381 -1.708382
v 0.000000 -1.002285 -2.480630
v 0.000000 -1.002285 -3.527230
v -0.096406 -0.092313 -0.505986
v -0.096406 -0.292738 -0.451968
v -0.096406 -0.092313 -0.749091
v -0.096406 -0.292738 -0.716539
v -0.969088 -1.005831 -0.505986
v -0.768663 -1.005831 -0.451968
v -0.969088 -1.005831 -0.749091
v -0.768663 -1.005831 -0.716539
vt 0.865692 0.580304
vt 0.881980 0.580304
vt 0.881980 0.680188
vt 0.865692 0.680188
vt 0.248175 0.110006
vt 0.012535 0.110006
vt 0.034364 0.012536
vt 0.226347 0.012536
vt 0.865692 0.872171
vt 0.881980 0.872171
vt 0.907050 0.112417
vt 0.923338 0.112417
vt 0.923340 0.693576
vt 0.907050 0.693576
vt 0.346031 0.110005
vt 0.457620 0.650791
vt 0.329880 0.166280
vt 0.324381 0.132417
vt 0.394100 0.650791
vt 0.225414 0.650790
vt 0.752908 0.110006
vt 0.491957 0.650791
vt 0.840620 0.818782
vt 0.824332 0.818782
vt 0.824332 0.755262
vt 0.840620 0.755262
vt 0.824332 0.720927
vt 0.840620 0.720927
vt 0.622433 0.012535
vt 0.799261 0.012535
vt 0.840620 0.120467
vt 0.824332 0.120467
vt 0.824332 0.012535
vt 0.840620 0.012535
vt 0.881980 0.482448
vt 0.865692 0.482448
vt 0.865691 0.189365
vt 0.881979 0.189365
vt 0.865690 0.012535
vt 0.881979 0.012535
vt 0.824332 0.987465
vt 0.840620 0.987465
vt 0.907050 0.012535
vt 0.923338 0.012535
vt 0.012535 0.743066
vt 0.012535 0.701993
vt 0.225987 0.701993
vt 0.225987 0.743066
vt 0.279680 0.132417
vt 0.288806 0.166280
vt 0.259849 0.692866
vt 0.259849 0.737567
vt 0.037021 0.767095
vt 0.202596 0.768162
vt 0.425429 0.692866
vt 0.425429 0.737567
vt 0.037021 0.676884
vt 0.202596 0.675861
vn 0.000000 -0.218500 -0.975800
vn 1.000000 -0.000000 0.000000
vn 0.000000 -1.000000 0.000000
vn 0.000000 0.366300 0.930500
vn 0.000000 1.000000 0.000000
vn 0.000000 0.429500 -0.903100
vn 0.000000 -0.943100 0.332600
vn 0.000000 0.434600 -0.900600
vn 0.000000 -0.218500 0.975800
vn 0.723100 0.690800 -0.000000
vn -0.162400 -0.154200 -0.974600
vn -0.727600 -0.686000 0.000000
vn 0.258300 0.245300 0.934400
vn -1.000000 -0.000000 0.000000
vn -0.723100 0.690800 -0.000000
vn 0.162400 -0.154200 -0.974600
vn 0.727600 -0.686000 0.000000
vn -0.258300 0.245300 0.934400
usemtl None
s off
f 33/1/1 4/2/1 3/3/1 34/4/1
f 4/5/2 2/6/2 1/7/2 3/8/2
f 36/9/3 34/4/3 3/3/3 1/10/3
f 35/11/4 2/12/4 6/13/4 38/14/4
f 7/15/2 8/16/2 15/17/2 16/18/2
f 2/6/2 4/5/2 5/19/2 6/20/2
f 8/16/2 7/15/2 9/21/2 10/22/2
f 37/23/5 5/24/5 8/25/5 40/26/5
f 40/26/5 8/25/5 10/27/5 42/28/5
f 9/21/2 7/15/2 11/29/2 12/30/2
f 41/31/6 9/32/6 12/33/6 44/34/6
f 7/35/7 39/36/7 43/37/7 11/38/7
f 11/38/3 43/37/3 44/39/3 12/40/3
f 9/32/8 41/31/8 42/28/8 10/27/8
f 4/2/3 33/1/3 39/36/3 7/35/3
f 6/41/5 5/24/5 37/23/5 38/42/5
f 2/12/9 35/11/9 36/43/9 1/44/9
f 15/45/10 13/46/10 17/47/10 19/48/10
f 4/5/2 7/15/2 16/18/2 14/49/2
f 5/19/2 4/5/2 14/49/2 13/50/2
f 8/16/2 5/19/2 13/50/2 15/17/2
f 17/47/3 18/51/3 20/52/3 19/48/3
f 16/53/11 15/45/11 19/48/11 20/54/11
f 14/55/12 16/56/12 20/52/12 18/51/12
f 13/46/13 14/57/13 18/58/13 17/47/13
f 33/1/1 34/4/1 23/3/1 24/2/1
f 24/5/14 23/8/14 21/7/14 22/6/14
f 36/9/3 21/10/3 23/3/3 34/4/3
f 35/11/4 38/14/4 26/13/4 22/12/4
f 27/15/14 48/18/14 47/17/14 28/16/14
f 22/6/14 26/20/14 25/19/14 24/5/14
f 28/16/14 30/22/14 29/21/14 27/15/14
f 37/23/5 40/26/5 28/25/5 25/24/5
f 40/26/5 42/28/5 30/27/5 28/25/5
f 29/21/14 32/30/14 31/29/14 27/15/14
f 41/31/6 44/34/6 32/33/6 29/32/6
f 27/35/7 31/38/7 43/37/7 39/36/7
f 31/38/3 32/40/3 44/39/3 43/37/3
f 29/32/8 30/27/8 42/28/8 41/31/8
f 24/2/3 27/35/3 39/36/3 33/1/3
f 26/41/5 38/42/5 37/23/5 25/24/5
f 22/12/9 21/44/9 36/43/9 35/11/9
f 47/45/15 51/48/15 49/47/15 45/46/15
f 24/5/14 46/49/14 48/18/14 27/15/14
f 25/19/14 45/50/14 46/49/14 24/5/14
f 28/16/14 47/17/14 45/50/14 25/19/14
f 49/47/3 51/48/3 52/52/3 50/51/3
f 48/53/16 52/54/16 51/48/16 47/45/16
f 46/55/17 50/51/17 52/52/17 48/56/17
f 45/46/18 49/47/18 50/58/18 46/57/18
