# Blender v2.75 (sub 0) OBJ File: 'Wings.blend'
# www.blender.org
mtllib Fin01.mtl
o Fin01_Cube
v 0.099733 -1.000000 -1.000000
v 0.026534 -1.000000 1.000000
v 0.099733 3.021272 -1.878353
v 0.026534 -0.460395 1.116409
v 0.064526 -1.000000 0.000000
v 0.036160 2.793746 -1.015927
v 0.099733 0.141698 -1.249377
v 0.026534 -0.846798 1.033050
v 0.074522 0.077100 -0.288436
v 0.099735 0.297426 -1.840568
v 0.099735 3.177000 -2.469544
v 0.099735 0.297426 -2.399432
v 0.099735 3.177000 -3.028408
v 0.099735 -0.617079 -1.637345
v 0.099735 -0.617079 -2.196209
v -0.099733 -1.000000 -1.000000
v -0.026534 -1.000000 1.000000
v -0.099733 3.021272 -1.878353
v -0.026534 -0.460395 1.116409
v -0.064526 -1.000000 0.000000
v -0.036160 2.793746 -1.015927
v -0.099733 0.141698 -1.249377
v -0.026534 -0.846798 1.033050
v -0.074522 0.077100 -0.288436
v -0.099735 0.297426 -1.840568
v -0.099735 3.177000 -2.469544
v -0.099735 0.297426 -2.399432
v -0.099735 3.177000 -3.028408
v -0.099735 -0.617079 -1.637345
v -0.099735 -0.617079 -2.196209
v 0.000000 -1.000000 -1.000000
v 0.000000 -1.000000 1.000000
v 0.000000 3.021272 -1.878353
v 0.000000 -0.460395 1.116408
v 0.000000 2.793746 -1.015927
v 0.000000 -1.000000 -0.000000
v 0.000000 0.141698 -1.249377
v 0.000000 -0.846798 1.033050
v 0.000000 3.177000 -2.469544
v 0.000000 0.297426 -1.840568
v 0.000000 3.177000 -3.028408
v 0.000000 0.297426 -2.399432
v 0.000000 -0.617079 -1.637345
v 0.000000 -0.617079 -2.196209
vt 0.279962 0.264691
vt 0.374931 0.762605
vt 0.034310 0.149743
vt 0.054329 0.081368
vt 0.451900 0.288873
vt 0.527443 0.814674
vt 0.422012 0.080389
vt 0.242148 0.067319
vt 0.800347 0.813588
vt 0.815370 0.813588
vt 0.815371 0.905676
vt 0.800348 0.905676
vt 0.062265 0.054260
vt 0.815371 0.989857
vt 0.800348 0.989857
vt 0.556139 0.324567
vt 0.631681 0.850369
vt 0.656595 0.331849
vt 0.732138 0.857650
vt 0.850678 0.235417
vt 0.835657 0.235417
vt 0.835657 0.094317
vt 0.850678 0.094317
vt 0.531524 0.157537
vt 0.631980 0.164818
vt 0.885985 0.151243
vt 0.870964 0.151243
vt 0.870963 0.010143
vt 0.885985 0.010143
vt 0.835656 0.010143
vt 0.850678 0.010143
vt 0.835656 0.679355
vt 0.850678 0.679356
vt 0.885985 0.243324
vt 0.870964 0.243324
vt 0.804340 0.010143
vt 0.804340 0.033742
vt 0.800345 0.033742
vt 0.800344 0.010143
vt 0.772719 0.968608
vt 0.622101 0.963305
vt 0.622101 0.953586
vt 0.772719 0.953586
vt 0.800347 0.679236
vt 0.805794 0.679236
vt 0.885986 0.419340
vt 0.870964 0.419340
vt 0.804341 0.093265
vt 0.800345 0.093265
vt 0.471481 0.957583
vt 0.471481 0.953586
vn 0.998900 0.021100 0.042200
vn 0.998500 0.019400 0.051700
vn 0.999500 0.003000 0.030900
vn -0.000000 0.967000 0.254700
vn 0.999300 -0.000500 0.036800
vn 0.000000 1.000000 0.000000
vn 1.000000 0.000000 0.000000
vn 0.000000 -0.216900 -0.976200
vn -0.000000 0.216900 0.976200
vn 0.000000 -1.000000 0.000000
vn 0.000000 -0.213400 -0.977000
vn 0.000000 -0.967000 -0.254700
vn 0.000000 -0.210900 0.977500
vn -0.000000 0.966900 0.255100
vn -0.000000 0.548100 0.836400
vn -0.998900 0.021100 0.042200
vn -0.998500 0.019400 0.051700
vn -0.999500 0.003000 0.030900
vn -0.999300 -0.000500 0.036800
vn -1.000000 0.000000 0.000000
usemtl Material
s off
f 9/1/1 6/2/1 4/3/1 8/4/1
f 7/5/2 3/6/2 6/2/2 9/1/2
f 1/7/3 7/5/3 9/1/3 5/8/3
f 33/9/4 3/10/4 11/11/4 39/12/4
f 5/8/5 9/1/5 8/4/5 2/13/5
f 39/12/6 11/11/6 13/14/6 41/15/6
f 3/6/7 7/5/7 10/16/7 11/17/7
f 11/17/7 10/16/7 12/18/7 13/19/7
f 42/20/8 12/21/8 15/22/8 44/23/8
f 12/18/7 10/16/7 14/24/7 15/25/7
f 10/26/9 40/27/9 43/28/9 14/29/9
f 14/30/10 43/31/10 44/23/10 15/22/10
f 13/32/11 12/21/11 42/20/11 41/33/11
f 7/34/12 37/35/12 40/27/12 10/26/12
f 2/36/13 8/37/13 38/38/13 32/39/13
f 1/40/10 5/41/10 36/42/10 31/43/10
f 3/10/14 33/9/14 35/44/14 6/45/14
f 7/34/11 1/46/11 31/47/11 37/35/11
f 8/37/13 4/48/13 34/49/13 38/38/13
f 6/45/15 35/44/15 34/49/15 4/48/15
f 5/41/10 2/50/10 32/51/10 36/42/10
f 24/1/16 23/4/16 19/3/16 21/2/16
f 22/5/17 24/1/17 21/2/17 18/6/17
f 16/7/18 20/8/18 24/1/18 22/5/18
f 33/9/4 39/12/4 26/11/4 18/10/4
f 20/8/19 17/13/19 23/4/19 24/1/19
f 39/12/6 41/15/6 28/14/6 26/11/6
f 18/6/20 26/17/20 25/16/20 22/5/20
f 26/17/20 28/19/20 27/18/20 25/16/20
f 42/20/8 44/23/8 30/22/8 27/21/8
f 27/18/20 30/25/20 29/24/20 25/16/20
f 25/26/9 29/29/9 43/28/9 40/27/9
f 29/30/10 30/22/10 44/23/10 43/31/10
f 28/32/11 41/33/11 42/20/11 27/21/11
f 22/34/12 25/26/12 40/27/12 37/35/12
f 17/36/13 32/39/13 38/38/13 23/37/13
f 16/40/10 31/43/10 36/42/10 20/41/10
f 18/10/14 21/45/14 35/44/14 33/9/14
f 22/34/11 37/35/11 31/47/11 16/46/11
f 23/37/13 38/38/13 34/49/13 19/48/13
f 21/45/15 19/48/15 34/49/15 35/44/15
f 20/41/10 36/42/10 32/51/10 17/50/10
