# Blender v2.75 (sub 0) OBJ File: 'Wings.blend'
# www.blender.org
mtllib Wing01.mtl
o Wing01_Cube.003
v -1.000000 -0.042291 1.000000
v -1.000000 0.042291 1.000000
v -1.000000 -0.052909 -1.207288
v -1.000000 -0.018291 -1.207288
v 3.950802 -0.014528 -0.194953
v 3.950802 0.014528 -0.194953
v 3.950802 -0.018176 -1.207288
v 3.950802 0.018176 -1.207288
v -1.000000 0.131932 0.779271
v -1.000000 -0.131932 0.779271
v 3.950802 0.045323 -0.296186
v 3.950802 -0.045323 -0.296186
v -0.009840 -0.010997 -1.207288
v 0.980321 -0.003704 -1.207288
v 1.970481 0.003589 -1.207288
v 2.960641 0.010883 -1.207288
v 2.960641 -0.025122 -1.207288
v 1.970481 -0.032069 -1.207288
v 0.980321 -0.039016 -1.207288
v -0.009840 -0.045962 -1.207288
v 2.960641 0.020081 0.044038
v 1.970481 0.025633 0.283028
v 0.980321 0.031186 0.522019
v -0.009840 0.036739 0.761009
v -0.009840 -0.036739 0.761009
v 0.980321 -0.031186 0.522019
v 1.970481 -0.025633 0.283028
v 2.960641 -0.020081 0.044038
v 2.960641 0.062644 -0.081095
v 1.970481 0.079966 0.133997
v 0.980321 0.097288 0.349088
v -0.009840 0.114610 0.564180
v -0.009840 -0.114610 0.564180
v 0.980321 -0.097288 0.349088
v 1.970481 -0.079966 0.133997
v 2.960641 -0.062644 -0.081095
v 2.960641 0.020081 0.237100
v 1.970481 0.025633 0.476090
v 0.980321 0.031186 0.715081
v -0.009840 0.036739 0.954072
v -0.009840 -0.036739 0.954072
v 0.980321 -0.031186 0.715081
v 1.970481 -0.025633 0.476090
v 2.960641 -0.020081 0.237100
v 2.960641 0.062644 0.111967
v 1.970481 0.079966 0.327059
v 0.980321 0.097288 0.542150
v -0.009840 0.114610 0.757242
v -0.009840 -0.114610 0.757242
v 0.980321 -0.097288 0.542150
v 1.970481 -0.079966 0.327059
v 2.960641 -0.062644 0.111967
v 2.960641 0.010883 -1.522284
v 3.950802 0.018176 -1.522284
v 3.950802 -0.018176 -1.522284
v -0.009840 -0.010997 -1.522284
v 0.980321 -0.003704 -1.522284
v 1.970481 0.003589 -1.522284
v 2.960641 -0.025122 -1.522284
v 1.970481 -0.032069 -1.522284
v 0.980321 -0.039016 -1.522284
v -0.009840 -0.045962 -1.522284
v 1.016734 -0.003436 -1.207288
v 1.016734 -0.038760 -1.207288
v 1.016734 0.030982 0.513230
v 1.016734 -0.030982 0.513230
v 1.016734 0.096651 0.341178
v 1.016734 -0.096651 0.341178
v 1.016734 -0.003436 -1.522284
v 1.016734 -0.038760 -1.522284
v 1.931055 0.003299 -1.207288
v 1.931055 -0.025855 0.292544
v 1.931055 -0.080656 0.142561
v 1.931055 0.003299 -1.522284
v 1.931055 -0.032346 -1.207288
v 1.931055 0.025855 0.292544
v 1.931055 0.080656 0.142561
v 1.931055 -0.032346 -1.522284
v 3.001878 0.011186 -1.207288
v 3.001878 -0.019850 0.034085
v 3.001878 -0.061923 -0.090053
v 3.001878 -0.024833 -1.207288
v 3.001878 0.019850 0.034085
v 3.001878 0.061923 -0.090053
v 3.001878 0.011186 -1.522284
v 3.001878 -0.024833 -1.522284
v 1.931055 0.000043 -1.132163
v 1.970481 0.000243 -1.132163
v 3.001878 -0.019279 -1.132163
v 2.960641 -0.019478 -1.132163
v 1.016734 -0.028845 -1.132163
v 0.980321 -0.029020 -1.132163
v 3.001878 0.011411 -0.039191
v 2.960641 0.011570 -0.030428
v 1.016734 0.019057 0.382674
v 0.980321 0.019197 0.390412
v 1.931055 -0.019980 0.188371
v 1.970481 -0.019829 0.179992
v 3.001878 0.040309 -0.148489
v 2.960641 0.040804 -0.140602
v 1.016734 0.064161 0.231190
v 0.980321 0.064599 0.238155
v 1.931055 -0.057620 0.056317
v 1.970481 -0.057147 0.048777
v 0.980321 -0.069044 0.238155
v 0.980321 -0.023642 0.390412
v 2.960641 -0.045249 -0.140602
v 2.960641 -0.016015 -0.030428
v 1.970481 0.052702 0.048777
v 1.970481 0.015384 0.179992
v 2.960641 0.005252 -1.132163
v 0.980321 -0.004767 -1.132163
v 1.970481 -0.024249 -1.132163
v 1.970481 0.000243 -1.409502
v 2.960641 0.005252 -1.409502
v 1.931055 0.000043 -1.409502
v 3.001878 -0.019279 -1.409502
v 2.960641 -0.019478 -1.409502
v 1.016734 -0.028845 -1.409502
v 0.980321 -0.029020 -1.409502
v 0.980321 -0.004767 -1.409502
v 1.970481 -0.024249 -1.409502
v 1.016734 -0.004582 -1.132163
v 1.016734 -0.023502 0.382674
v 1.016734 -0.068606 0.231190
v 1.016734 -0.004582 -1.409502
v 1.931055 -0.024439 -1.132163
v 1.931055 0.015536 0.188371
v 1.931055 0.053175 0.056317
v 1.931055 -0.024439 -1.409502
v 3.001878 0.005461 -1.132163
v 3.001878 -0.015856 -0.039191
v 3.001878 -0.044754 -0.148489
v 3.001878 0.005461 -1.409502
vt 0.055001 0.832388
vt 0.319785 0.852410
vt 0.319785 0.857024
vt 0.055001 0.867558
vt 0.766547 0.968485
vt 0.749868 0.962813
vt 0.759793 0.961678
vt 0.774478 0.965574
vt 0.772891 0.546846
vt 0.759398 0.542742
vt 0.759398 0.538869
vt 0.772891 0.534765
vt 0.068817 0.159490
vt 0.036516 0.291359
vt 0.025581 0.288617
vt 0.059317 0.157108
vt 0.444345 0.709892
vt 0.593340 0.710049
vt 0.593238 0.836531
vt 0.471746 0.836407
vt 0.097023 0.160120
vt 0.333730 0.160116
vt 0.333801 0.292096
vt 0.068262 0.292095
vt 0.426877 0.710180
vt 0.457644 0.836603
vt 0.894327 0.543228
vt 0.894327 0.538383
vt 0.025581 0.844336
vt 0.025581 0.855610
vt 0.025581 0.343935
vt 0.057328 0.343258
vt 0.085842 0.475287
vt 0.057634 0.475864
vt 0.409241 0.962126
vt 0.432287 0.970936
vt 0.406558 0.970936
vt 0.383511 0.962126
vt 0.916640 0.956790
vt 0.958638 0.956791
vt 0.943602 0.957543
vt 0.906625 0.957543
vt 0.071178 0.918720
vt 0.051314 0.925962
vt 0.025581 0.925962
vt 0.045445 0.918720
vt 0.051314 0.932795
vt 0.065048 0.927328
vt 0.065047 0.932022
vt 0.114356 0.607317
vt 0.088623 0.607287
vt 0.060109 0.475257
vt 0.698175 0.905811
vt 0.656206 0.905812
vt 0.646196 0.904491
vt 0.683147 0.904490
vt 0.785130 0.608388
vt 0.785130 0.618181
vt 0.759398 0.618181
vt 0.759398 0.608388
vt 0.749868 0.957460
vt 0.766545 0.951786
vt 0.774478 0.954105
vt 0.759793 0.958001
vt 0.524508 0.088284
vt 0.674773 0.088186
vt 0.674904 0.220166
vt 0.495838 0.220280
vt 0.639710 0.952716
vt 0.681750 0.952703
vt 0.666692 0.954042
vt 0.629694 0.954051
vt 0.125782 0.028143
vt 0.333663 0.028137
vt 0.322320 0.343707
vt 0.322133 0.475686
vt 0.321946 0.607665
vt 0.473750 0.351315
vt 0.652640 0.351542
vt 0.652506 0.483521
vt 0.502315 0.483334
vt 0.957980 0.436593
vt 0.915991 0.436593
vt 0.905982 0.435853
vt 0.942947 0.435852
vt 0.740815 0.968487
vt 0.724136 0.962816
vt 0.071178 0.940037
vt 0.082540 0.936993
vt 0.409241 0.953814
vt 0.383511 0.953814
vt 0.326934 0.343746
vt 0.326793 0.475726
vt 0.364118 0.475746
vt 0.363931 0.607724
vt 0.862527 0.602669
vt 0.862527 0.598009
vt 0.904512 0.598009
vt 0.904512 0.602669
vt 0.716758 0.088145
vt 0.716889 0.220124
vt 0.031902 0.475834
vt 0.063952 0.607764
vt 0.426877 0.351682
vt 0.448017 0.351295
vt 0.476582 0.483314
vt 0.458968 0.483602
vt 0.481160 0.087982
vt 0.498775 0.088284
vt 0.470106 0.220280
vt 0.448967 0.219877
vt 0.075379 0.027603
vt 0.100049 0.028126
vt 0.071291 0.160102
vt 0.043084 0.159473
vt 0.442337 0.218221
vt 0.475967 0.086684
vt 0.033584 0.157092
vt 0.067315 0.025581
vt 0.811365 0.598009
vt 0.785632 0.598009
vt 0.811365 0.628561
vt 0.785632 0.628561
vt 0.432287 0.945004
vt 0.406558 0.945004
vt 0.724136 0.957463
vt 0.045445 0.940037
vt 0.025581 0.932795
vt 0.740813 0.951788
vt 0.640126 0.710120
vt 0.640068 0.836603
vt 0.635223 0.836565
vt 0.635325 0.710083
vt 0.368778 0.475785
vt 0.368638 0.607764
vt 0.699377 0.351623
vt 0.699289 0.483602
vt 0.694491 0.483564
vt 0.694625 0.351585
vt 0.375648 0.028116
vt 0.375715 0.160095
vt 0.887991 0.309466
vt 0.887962 0.182983
vt 0.929947 0.182974
vt 0.929976 0.309457
vt 0.936314 0.538383
vt 0.936314 0.543228
vt 0.767085 0.441540
vt 0.774874 0.439251
vt 0.447069 0.948764
vt 0.426780 0.954819
vt 0.256493 0.781129
vt 0.256657 0.659259
vt 0.298642 0.659316
vt 0.298478 0.781186
vt 0.958638 0.961591
vt 0.943602 0.960840
vt 0.249933 0.933627
vt 0.239913 0.932586
vt 0.464705 0.536440
vt 0.434889 0.658212
vt 0.426877 0.656204
vt 0.458019 0.534765
vt 0.750539 0.435932
vt 0.760306 0.435400
vt 0.485984 0.536862
vt 0.666197 0.536859
vt 0.666250 0.658730
vt 0.459429 0.658730
vt 0.291931 0.928866
vt 0.291931 0.933621
vt 0.276893 0.932580
vt 0.276892 0.929315
vt 0.691289 0.796822
vt 0.711280 0.789517
vt 0.722776 0.792588
vt 0.705174 0.797605
vt 0.750539 0.430640
vt 0.767085 0.425033
vt 0.774874 0.427914
vt 0.760306 0.431765
vt 0.681756 0.957418
vt 0.666689 0.957279
vt 0.708182 0.536841
vt 0.708235 0.658711
vt 0.303350 0.659355
vt 0.303229 0.781226
vt 0.050122 0.658926
vt 0.076460 0.780842
vt 0.025581 0.659401
vt 0.055180 0.781226
vt 0.891193 0.795954
vt 0.881180 0.797008
vt 0.915999 0.431791
vt 0.905982 0.432555
vt 0.752368 0.182772
vt 0.721456 0.309160
vt 0.716323 0.307875
vt 0.748611 0.181831
vt 0.766470 0.182984
vt 0.738924 0.309467
vt 0.933175 0.795954
vt 0.933175 0.800704
vt 0.918144 0.800271
vt 0.918144 0.797008
vt 0.921969 0.365586
vt 0.922489 0.360434
vt 0.948024 0.366584
vt 0.946800 0.367938
vt 0.749338 0.897344
vt 0.766952 0.887765
vt 0.769192 0.893032
vt 0.753090 0.899104
vt 0.754605 0.362778
vt 0.767036 0.368514
vt 0.764470 0.373870
vt 0.750539 0.364457
vt 0.695011 0.726178
vt 0.714438 0.733430
vt 0.712456 0.738355
vt 0.691289 0.727819
vt 0.921828 0.368700
vt 0.922002 0.373870
vt 0.918100 0.727925
vt 0.918356 0.732163
vt 0.949929 0.889352
vt 0.949748 0.894098
vt 0.750895 0.359012
vt 0.754530 0.360972
vt 0.691625 0.720176
vt 0.695315 0.722052
vt 0.974419 0.896105
vt 0.973320 0.894887
vt 0.973268 0.894457
vt 0.974180 0.893117
vt 0.950292 0.901796
vt 0.949802 0.897061
vt 0.918174 0.725092
vt 0.918522 0.720865
vt 0.941417 0.725400
vt 0.940586 0.726519
vt 0.940636 0.726982
vt 0.941417 0.728093
vt 0.712977 0.709892
vt 0.714872 0.714840
vt 0.753289 0.902025
vt 0.769540 0.908309
vt 0.767439 0.913635
vt 0.749338 0.903921
vt 0.946738 0.368351
vt 0.947735 0.369840
vt 0.765286 0.351295
vt 0.767379 0.356842
vt 0.656211 0.901105
vt 0.698175 0.901104
vt 0.683146 0.901257
vt 0.646197 0.901258
vt 0.426780 0.960528
vt 0.082537 0.922352
vt 0.639725 0.957425
vt 0.629695 0.957285
vt 0.447074 0.966575
vt 0.711280 0.811019
vt 0.691289 0.803715
vt 0.705174 0.802339
vt 0.722777 0.807356
vt 0.426877 0.904778
vt 0.426877 0.896519
vt 0.444280 0.898108
vt 0.444280 0.903781
vt 0.891193 0.800705
vt 0.881180 0.800271
vt 0.449811 0.913531
vt 0.464471 0.909793
vt 0.916641 0.961590
vt 0.906624 0.960839
vt 0.449811 0.887765
vt 0.464471 0.892096
vt 0.249928 0.928873
vt 0.239913 0.929321
vt 0.957980 0.431792
vt 0.942948 0.432555
vn -1.000000 0.000000 0.000000
vn 1.000000 0.000000 0.000000
vn 0.234600 0.000000 0.972100
vn 0.008800 -0.999500 -0.031700
vn -0.002900 0.997300 -0.073200
vn 0.095700 0.923800 0.370600
vn 0.081300 -0.948400 0.306600
vn 0.095700 -0.923800 0.370600
vn 0.017500 -0.999800 0.000000
vn -0.000600 0.998700 -0.051900
vn -0.002300 0.997700 -0.067900
vn 0.008000 -0.999200 -0.039300
vn 0.008100 -0.999200 -0.038100
vn 0.008500 -0.999400 -0.034600
vn -0.000000 0.000000 -1.000000
vn 0.007000 -1.000000 0.000000
vn -0.007400 1.000000 0.000000
vn 0.093500 -0.927800 0.361200
vn 0.087000 -0.939300 0.332000
vn 0.087000 0.939300 0.332000
vn 0.093500 0.927800 0.361200
vn 0.017500 0.999800 0.000000
vn -0.001600 0.998100 -0.061100
vn 0.090800 0.932700 0.348900
vn 0.008300 -0.999300 -0.036600
vn 0.090800 -0.932700 0.348900
vn 0.000900 0.999300 -0.038400
vn 0.081300 0.948400 0.306600
vn 0.004800 -1.000000 0.000000
vn 0.062800 -0.959900 0.273300
vn 0.059300 0.965000 0.255600
vn 0.065100 0.956300 0.285000
vn 0.000100 0.999400 -0.035600
vn -0.001400 0.998700 -0.050500
vn 0.005700 -0.999600 -0.027900
vn 0.207900 0.000000 0.978200
vn -0.005100 1.000000 0.000000
vn 0.005600 -0.999600 -0.029200
vn 0.065100 -0.956300 0.285000
vn 0.062800 0.959900 0.273300
vn -0.000800 0.999000 -0.044500
vn 0.059300 -0.965000 0.255600
vn 0.005900 -0.999600 -0.025900
vn 1.000000 -0.000100 0.000000
vn -1.000000 0.000100 0.000000
vn 1.000000 0.000100 0.000000
usemtl None
s off
f 9/1/1 4/2/1 3/3/1 10/4/1
f 29/5/2 21/6/2 94/7/2 100/8/2
f 11/9/2 6/10/2 5/11/2 12/12/2
f 24/13/3 2/14/3 1/15/3 25/16/3
f 81/17/4 82/18/4 7/19/4 12/20/4
f 32/21/5 13/22/5 4/23/5 9/24/5
f 24/13/6 32/21/6 9/24/6 2/14/6
f 80/25/7 81/17/7 12/20/7 5/26/7
f 8/27/2 11/9/2 12/12/2 7/28/2
f 2/29/1 9/1/1 10/4/1 1/30/1
f 1/31/8 10/32/8 33/33/8 25/34/8
f 23/35/2 31/36/2 47/37/2 39/38/2
f 17/39/2 59/40/2 118/41/2 90/42/2
f 30/43/1 22/44/1 38/45/1 46/46/1
f 27/47/1 22/44/1 110/48/1 98/49/1
f 33/33/9 34/50/9 50/51/9 49/52/9
f 70/53/1 64/54/1 91/55/1 119/56/1
f 24/57/1 25/58/1 41/59/1 40/60/1
f 28/61/2 36/62/2 107/63/2 108/64/2
f 29/65/10 16/66/10 15/67/10 30/68/10
f 19/69/2 61/70/2 120/71/2 92/72/2
f 31/73/11 14/74/11 13/22/11 32/21/11
f 10/32/12 3/75/12 20/76/12 33/33/12
f 33/33/13 20/76/13 19/77/13 34/50/13
f 21/6/2 28/61/2 108/64/2 94/7/2
f 35/78/14 18/79/14 17/80/14 36/81/14
f 86/82/1 82/83/1 89/84/1 117/85/1
f 21/6/2 29/5/2 45/86/2 37/87/2
f 35/88/1 27/47/1 98/49/1 104/89/1
f 26/90/2 23/35/2 39/38/2 42/91/2
f 4/92/15 13/93/15 20/76/15 3/75/15
f 19/77/16 20/76/16 62/94/16 61/95/16
f 20/96/1 13/97/1 56/98/1 62/99/1
f 15/67/17 16/66/17 53/100/17 58/101/17
f 41/102/18 49/52/18 50/51/18 42/103/18
f 43/104/19 51/105/19 52/106/19 44/107/19
f 37/108/20 45/109/20 46/110/20 38/111/20
f 39/112/21 47/113/21 48/114/21 40/115/21
f 37/108/3 38/111/3 43/116/3 44/117/3
f 39/112/3 40/115/3 41/118/3 42/119/3
f 35/78/9 36/81/9 52/106/9 51/105/9
f 32/120/1 24/57/1 40/60/1 48/121/1
f 25/58/1 33/122/1 49/123/1 41/59/1
f 29/65/22 30/68/22 46/110/22 45/109/22
f 34/124/2 26/90/2 42/91/2 50/125/2
f 28/61/2 21/6/2 37/87/2 44/126/2
f 27/47/1 35/88/1 51/127/1 43/128/1
f 22/44/1 27/47/1 43/128/1 38/45/1
f 31/73/22 32/21/22 48/114/22 47/113/22
f 36/62/2 28/61/2 44/126/2 52/129/2
f 85/130/15 54/131/15 55/132/15 86/133/15
f 56/134/15 57/135/15 61/95/15 62/94/15
f 36/62/2 17/39/2 90/42/2 107/63/2
f 58/136/15 53/137/15 59/138/15 60/139/15
f 13/22/17 14/74/17 57/140/17 56/141/17
f 79/142/17 8/143/17 54/144/17 85/145/17
f 17/80/16 18/79/16 60/139/16 59/138/16
f 8/27/2 7/28/2 55/146/2 54/147/2
f 82/83/1 81/148/1 133/149/1 89/84/1
f 26/90/2 34/124/2 105/150/2 106/151/2
f 75/152/16 64/153/16 70/154/16 78/155/16
f 59/40/2 53/156/2 115/157/2 118/41/2
f 18/158/1 35/88/1 104/89/1 113/159/1
f 76/160/3 65/161/3 66/162/3 72/163/3
f 81/148/1 80/164/1 132/165/1 133/149/1
f 77/166/23 71/167/23 63/168/23 67/169/23
f 76/160/24 77/166/24 67/169/24 65/161/24
f 58/170/1 60/171/1 122/172/1 114/173/1
f 72/174/2 73/175/2 103/176/2 97/177/2
f 34/124/2 19/69/2 92/72/2 105/150/2
f 83/178/1 84/179/1 99/180/1 93/181/1
f 61/70/2 57/182/2 121/183/2 120/71/2
f 63/168/17 71/167/17 74/184/17 69/185/17
f 69/186/15 74/187/15 78/155/15 70/154/15
f 68/188/25 64/153/25 75/152/25 73/189/25
f 66/190/26 68/188/26 73/189/26 72/191/26
f 73/175/2 75/192/2 127/193/2 103/176/2
f 84/179/1 79/194/1 131/195/1 99/180/1
f 6/196/3 83/197/3 80/198/3 5/199/3
f 11/200/27 8/143/27 79/142/27 84/201/27
f 6/196/28 11/200/28 84/201/28 83/197/28
f 78/202/2 74/203/2 116/204/2 130/205/2
f 80/164/1 83/178/1 93/181/1 132/165/1
f 7/19/16 82/18/16 86/133/16 55/132/16
f 89/206/29 90/207/29 118/208/29 117/209/29
f 97/210/30 103/211/30 104/212/30 98/213/30
f 93/214/31 99/215/31 100/216/31 94/217/31
f 95/218/32 101/219/32 102/220/32 96/221/32
f 99/215/33 131/222/33 111/223/33 100/216/33
f 101/219/34 123/224/34 112/225/34 102/220/34
f 103/211/35 127/226/35 113/227/35 104/212/35
f 93/214/36 94/217/36 108/228/36 132/229/36
f 95/218/36 96/221/36 106/230/36 124/231/36
f 116/232/15 114/233/15 122/234/15 130/235/15
f 87/236/37 88/237/37 114/233/37 116/232/37
f 91/238/29 92/239/29 120/240/29 119/241/29
f 112/225/37 123/224/37 126/242/37 121/243/37
f 121/243/15 126/242/15 119/241/15 120/240/15
f 105/244/38 92/239/38 91/238/38 125/245/38
f 106/230/39 105/244/39 125/245/39 124/231/39
f 110/246/40 109/247/40 129/248/40 128/249/40
f 109/247/41 88/237/41 87/236/41 129/248/41
f 110/246/36 128/249/36 97/210/36 98/213/36
f 113/227/29 127/226/29 130/235/29 122/234/29
f 111/223/37 131/222/37 134/250/37 115/251/37
f 115/251/15 134/250/15 117/209/15 118/208/15
f 108/228/42 107/252/42 133/253/42 132/229/42
f 107/252/43 90/207/43 89/206/43 133/253/43
f 63/254/1 69/255/1 126/256/1 123/257/1
f 23/35/2 26/90/2 106/151/2 96/258/2
f 22/44/1 30/43/1 109/259/1 110/48/1
f 69/255/1 70/53/1 119/56/1 126/256/1
f 57/182/44 14/260/44 112/261/44 121/183/44
f 31/36/2 23/35/2 96/258/2 102/262/2
f 77/263/2 76/264/2 128/265/2 129/266/2
f 66/267/1 65/268/1 95/269/1 124/270/1
f 71/271/2 77/263/2 129/266/2 87/272/2
f 64/54/1 68/273/1 125/274/1 91/55/1
f 60/171/1 18/158/1 113/159/1 122/172/1
f 16/275/2 29/5/2 100/8/2 111/276/2
f 76/264/2 72/174/2 97/177/2 128/265/2
f 67/277/1 63/254/1 123/257/1 101/278/1
f 15/279/45 58/170/45 114/173/45 88/280/45
f 79/194/1 85/281/1 134/282/1 131/195/1
f 30/43/1 15/279/1 88/280/1 109/259/1
f 75/192/2 78/202/2 130/205/2 127/193/2
f 65/268/1 67/277/1 101/278/1 95/269/1
f 53/156/2 16/275/2 111/276/2 115/157/2
f 85/281/1 86/82/1 117/85/1 134/282/1
f 14/260/2 31/36/2 102/262/2 112/261/2
f 74/203/46 71/271/46 87/272/46 116/204/46
f 68/273/1 66/267/1 124/270/1 125/274/1
