# Blender v2.75 (sub 0) OBJ File: 'FighterShip_001.blend'
# www.blender.org
mtllib SeatSpinner.mtl
o SeatSpinner_Cylinder.001
v 0.000000 0.078556 -0.496863
v 0.000000 0.149064 -0.496863
v 0.053200 0.078556 -0.474827
v 0.053200 0.149064 -0.474827
v 0.075236 0.078556 -0.421627
v 0.075236 0.149064 -0.421627
v 0.053200 0.078556 -0.368427
v 0.053200 0.149064 -0.368427
v -0.000000 0.078556 -0.346391
v -0.000000 0.149064 -0.346391
v -0.053200 0.078556 -0.368427
v -0.053200 0.149064 -0.368427
v -0.075236 0.078556 -0.421627
v -0.075236 0.149064 -0.421627
v -0.053200 0.078556 -0.474827
v -0.053200 0.149064 -0.474827
v 0.000000 0.078556 -0.457768
v 0.025556 0.078556 -0.447182
v 0.036141 0.078556 -0.421627
v 0.025556 0.078556 -0.396071
v -0.000000 0.078556 -0.385486
v -0.025556 0.078556 -0.396071
v -0.036141 0.078556 -0.421627
v -0.025556 0.078556 -0.447182
v 0.000000 -0.000804 -0.457768
v 0.025556 -0.000804 -0.447182
v 0.036141 -0.000804 -0.421627
v 0.025556 -0.000804 -0.396071
v -0.000000 -0.000804 -0.385486
v -0.025556 -0.000804 -0.396071
v -0.036141 -0.000804 -0.421627
v -0.025556 -0.000804 -0.447182
vt 0.986903 0.013097
vt 0.986903 0.162146
vt 0.865177 0.162146
vt 0.865177 0.013097
vt 0.743452 0.162146
vt 0.743452 0.013097
vt 0.621726 0.162146
vt 0.621726 0.013097
vt 0.500000 0.162146
vt 0.500000 0.013097
vt 0.378274 0.162146
vt 0.378274 0.013097
vt 0.256548 0.162146
vt 0.256548 0.013097
vt 0.306969 0.274412
vt 0.306969 0.396138
vt 0.220896 0.482211
vt 0.099170 0.482211
vt 0.013097 0.396138
vt 0.013097 0.274412
vt 0.099170 0.188339
vt 0.220896 0.188339
vt 0.134823 0.013097
vt 0.134823 0.162146
vt 0.013097 0.162146
vt 0.013097 0.013097
vt 0.333163 0.396138
vt 0.333163 0.274412
vt 0.409515 0.306039
vt 0.409515 0.364512
vt 0.130044 0.676165
vt 0.071570 0.676165
vt 0.071570 0.508405
vt 0.130044 0.508405
vt 0.540962 0.188339
vt 0.627035 0.274412
vt 0.550683 0.306039
vt 0.509336 0.264691
vt 0.540962 0.482211
vt 0.419236 0.482211
vt 0.450862 0.405859
vt 0.509336 0.405859
vt 0.419236 0.188339
vt 0.450862 0.264691
vt 0.627035 0.396138
vt 0.550683 0.364512
vt 0.648247 0.608226
vt 0.606900 0.649573
vt 0.548427 0.649573
vt 0.507080 0.608226
vt 0.507080 0.549752
vt 0.548427 0.508405
vt 0.606900 0.508405
vt 0.648247 0.549752
vt 0.246991 0.676165
vt 0.188518 0.676165
vt 0.188518 0.508405
vt 0.246991 0.508405
vt 0.363939 0.676165
vt 0.305465 0.676165
vt 0.305465 0.508405
vt 0.363939 0.508405
vt 0.480886 0.676165
vt 0.422412 0.676165
vt 0.422412 0.508405
vt 0.480886 0.508405
vt 0.013097 0.676165
vt 0.013097 0.508405
vn 0.382700 0.000000 -0.923900
vn 0.923900 0.000000 -0.382700
vn 0.923900 0.000000 0.382700
vn 0.382700 0.000000 0.923900
vn -0.382700 0.000000 0.923900
vn -0.923900 0.000000 0.382700
vn 0.000000 1.000000 -0.000000
vn -0.382700 0.000000 -0.923900
vn -0.923900 0.000000 -0.382700
vn 0.000000 -1.000000 -0.000000
usemtl SeatSpinner_Material
s off
f 1/1/1 2/2/1 4/3/1 3/4/1
f 3/4/2 4/3/2 6/5/2 5/6/2
f 5/6/3 6/5/3 8/7/3 7/8/3
f 7/8/4 8/7/4 10/9/4 9/10/4
f 9/10/5 10/9/5 12/11/5 11/12/5
f 11/12/6 12/11/6 14/13/6 13/14/6
f 4/15/7 2/16/7 16/17/7 14/18/7 12/19/7 10/20/7 8/21/7 6/22/7
f 15/23/8 16/24/8 2/25/8 1/26/8
f 13/14/9 14/13/9 16/24/9 15/23/9
f 7/27/10 9/28/10 21/29/10 20/30/10
f 23/31/9 24/32/9 32/33/9 31/34/9
f 13/35/10 15/36/10 24/37/10 23/38/10
f 3/39/10 5/40/10 19/41/10 18/42/10
f 9/28/10 11/43/10 22/44/10 21/29/10
f 15/36/10 1/45/10 17/46/10 24/37/10
f 1/45/10 3/39/10 18/42/10 17/46/10
f 5/40/10 7/27/10 20/30/10 19/41/10
f 11/43/10 13/35/10 23/38/10 22/44/10
f 25/47/10 26/48/10 27/49/10 28/50/10 29/51/10 30/52/10 31/53/10 32/54/10
f 21/55/5 22/56/5 30/57/5 29/58/5
f 19/59/3 20/60/3 28/61/3 27/62/3
f 17/63/1 18/64/1 26/65/1 25/66/1
f 24/32/8 17/67/8 25/68/8 32/33/8
f 22/56/6 23/31/6 31/34/6 30/57/6
f 20/60/4 21/55/4 29/58/4 28/61/4
f 18/64/2 19/59/2 27/62/2 26/65/2
