# Blender v2.75 (sub 0) OBJ File: 'EnginePieces.blend'
# www.blender.org
mtllib EngineBack03.mtl
o EngineBack03_Cube.005
v 0.351393 0.332333 -1.360333
v 0.351393 0.332333 -2.260405
v 0.351393 0.332333 -1.431855
v 0.402796 0.381087 -2.260405
v 0.402796 0.381087 -1.431855
v 0.402796 0.381087 -1.587869
v 0.475371 0.451753 -2.311635
v 0.475371 0.451753 -1.587869
v 0.351393 0.332333 -1.749767
v -0.351393 0.332333 -1.360333
v -0.351393 0.332333 -2.260405
v 0.000000 0.475651 -2.260405
v 0.000000 0.475651 -1.360333
v -0.351393 0.332333 -1.431855
v 0.000000 0.475651 -1.431855
v 0.000000 0.524405 -2.260405
v -0.402796 0.381087 -2.260405
v -0.402796 0.381087 -1.431855
v 0.000000 0.524405 -1.431855
v -0.402796 0.381087 -1.587869
v 0.000000 0.524405 -1.587869
v 0.000000 0.595071 -2.311635
v -0.475371 0.451753 -2.311635
v -0.475371 0.451753 -1.587869
v 0.000000 0.595071 -1.587869
v 0.000000 0.475651 -1.749767
v -0.351393 0.332333 -1.749767
v 0.351393 -0.332333 -1.360333
v 0.351393 -0.332333 -2.260405
v 0.475651 0.000000 -2.260405
v 0.475651 0.000000 -1.360333
v 0.351393 -0.332333 -1.431855
v 0.475651 0.000000 -1.431855
v 0.402796 -0.381087 -2.260405
v 0.527054 0.000000 -2.260405
v 0.527054 0.000000 -1.431855
v 0.402796 -0.381087 -1.431855
v 0.527054 0.000000 -1.587869
v 0.402796 -0.381087 -1.587869
v 0.475371 -0.451753 -2.311635
v 0.599629 0.000000 -2.311635
v 0.599629 0.000000 -1.587869
v 0.475371 -0.451753 -1.587869
v 0.351393 -0.332333 -1.749767
v 0.475651 0.000000 -1.749767
v -0.351393 -0.332333 -1.360333
v -0.351393 -0.332333 -2.260405
v 0.000000 -0.475651 -2.260405
v 0.000000 -0.475651 -1.360333
v -0.475651 0.000000 -2.260405
v -0.475651 0.000000 -1.360333
v 0.000000 0.000000 -1.360333
v -0.351393 -0.332333 -1.431855
v 0.000000 -0.475651 -1.431855
v -0.475651 0.000000 -1.431855
v 0.000000 -0.524405 -2.260405
v -0.402796 -0.381087 -2.260405
v -0.527054 0.000000 -2.260405
v -0.527054 0.000000 -1.431855
v -0.402796 -0.381087 -1.431855
v 0.000000 -0.524405 -1.431855
v -0.527054 0.000000 -1.587869
v -0.402796 -0.381087 -1.587869
v 0.000000 -0.524405 -1.587869
v 0.000000 -0.595071 -2.311635
v -0.475371 -0.451753 -2.311635
v -0.599629 0.000000 -2.311635
v -0.599629 0.000000 -1.587869
v -0.475371 -0.451753 -1.587869
v 0.000000 -0.595071 -1.587869
v 0.000000 -0.475651 -1.749767
v -0.351393 -0.332333 -1.749767
v -0.475651 0.000000 -1.749767
v 0.000000 0.000000 -1.749767
vt 0.689553 0.044094
vt 0.689553 0.263681
vt 0.659783 0.263681
vt 0.659783 0.044094
vt 0.202089 0.723972
vt 0.012180 0.801428
vt 0.012180 0.544364
vt 0.269244 0.544364
vt 0.071316 0.263681
vt 0.031309 0.263681
vt 0.031309 0.044094
vt 0.071316 0.044094
vt 0.979793 0.044094
vt 0.979793 0.263681
vt 0.071316 0.492907
vt 0.100535 0.263681
vt 0.100535 0.492907
vt 0.031309 0.492907
vt 0.609328 0.263681
vt 0.609328 0.044094
vt 0.191675 0.263681
vt 0.100535 0.044094
vt 0.191675 0.044094
vt 0.689553 0.492907
vt 0.659783 0.492907
vt 0.191675 0.492907
vt 0.233083 0.263681
vt 0.233083 0.492907
vt 0.609328 0.492907
vt 0.233083 0.044094
vt 0.293604 0.801428
vt 0.371059 0.611519
vt 0.550668 0.544364
vt 0.550668 0.801428
vt 0.979793 0.492907
vn 0.000000 0.000000 -1.000000
vn 0.000000 0.000000 1.000000
vn 0.936700 0.350200 0.000000
vn -0.936700 -0.350200 0.000000
vn 0.377700 0.925900 0.000000
vn -0.518400 -0.154700 -0.841000
vn 0.950700 0.310000 0.000000
vn 0.335200 0.942100 0.000000
vn 0.288700 0.957400 0.000000
vn 0.964200 0.265200 0.000000
vn -0.169700 -0.519800 -0.837200
vn -0.377700 -0.925900 0.000000
vn -0.936700 0.350200 0.000000
vn 0.936700 -0.350200 0.000000
vn -0.377700 0.925900 0.000000
vn 0.518400 -0.154700 -0.841000
vn -0.950700 0.310000 0.000000
vn -0.335200 0.942100 0.000000
vn -0.288700 0.957400 0.000000
vn -0.964200 0.265200 0.000000
vn 0.169700 -0.519800 -0.837200
vn 0.377700 -0.925900 0.000000
vn -0.518400 0.154700 -0.841000
vn 0.950700 -0.310000 0.000000
vn 0.335200 -0.942100 0.000000
vn 0.288700 -0.957400 0.000000
vn 0.964200 -0.265200 0.000000
vn -0.169700 0.519800 -0.837200
vn 0.518400 0.154700 -0.841000
vn -0.950700 -0.310000 0.000000
vn -0.335200 -0.942100 0.000000
vn -0.288700 -0.957400 0.000000
vn -0.964200 -0.265200 0.000000
vn 0.169700 0.519800 -0.837200
usemtl EngineBack03_Material
s off
f 30/1/1 2/2/1 4/3/1 35/4/1
f 1/5/2 13/6/2 52/7/2 31/8/2
f 3/9/3 1/10/3 31/11/3 33/12/3
f 2/2/4 30/1/4 45/13/4 9/14/4
f 15/15/2 3/9/2 5/16/2 19/17/2
f 1/10/5 3/9/5 15/15/5 13/18/5
f 35/4/6 4/3/6 7/19/6 41/20/6
f 6/21/7 5/16/7 36/22/7 38/23/7
f 2/2/1 12/24/1 16/25/1 4/3/1
f 3/9/2 33/12/2 36/22/2 5/16/2
f 21/26/2 6/21/2 8/27/2 25/28/2
f 5/16/8 6/21/8 21/26/8 19/17/8
f 8/27/9 7/19/9 22/29/9 25/28/9
f 7/19/10 8/27/10 42/30/10 41/20/10
f 6/21/2 38/23/2 42/30/2 8/27/2
f 4/3/11 16/25/11 22/29/11 7/19/11
f 26/31/1 9/32/1 45/33/1 74/34/1
f 12/24/12 2/2/12 9/14/12 26/35/12
f 50/1/1 58/4/1 17/3/1 11/2/1
f 10/5/2 51/8/2 52/7/2 13/6/2
f 14/9/13 55/12/13 51/11/13 10/10/13
f 11/2/14 27/14/14 73/13/14 50/1/14
f 15/15/2 19/17/2 18/16/2 14/9/2
f 10/10/15 13/18/15 15/15/15 14/9/15
f 58/4/16 67/20/16 23/19/16 17/3/16
f 20/21/17 62/23/17 59/22/17 18/16/17
f 11/2/1 17/3/1 16/25/1 12/24/1
f 14/9/2 18/16/2 59/22/2 55/12/2
f 21/26/2 25/28/2 24/27/2 20/21/2
f 18/16/18 19/17/18 21/26/18 20/21/18
f 24/27/19 25/28/19 22/29/19 23/19/19
f 23/19/20 67/20/20 68/30/20 24/27/20
f 20/21/2 24/27/2 68/30/2 62/23/2
f 17/3/21 23/19/21 22/29/21 16/25/21
f 26/31/1 74/34/1 73/33/1 27/32/1
f 12/24/22 26/35/22 27/14/22 11/2/22
f 30/1/1 35/4/1 34/3/1 29/2/1
f 28/5/2 31/8/2 52/7/2 49/6/2
f 32/9/14 33/12/14 31/11/14 28/10/14
f 29/2/13 44/14/13 45/13/13 30/1/13
f 54/15/2 61/17/2 37/16/2 32/9/2
f 28/10/22 49/18/22 54/15/22 32/9/22
f 35/4/23 41/20/23 40/19/23 34/3/23
f 39/21/24 38/23/24 36/22/24 37/16/24
f 29/2/1 34/3/1 56/25/1 48/24/1
f 32/9/2 37/16/2 36/22/2 33/12/2
f 64/26/2 70/28/2 43/27/2 39/21/2
f 37/16/25 61/17/25 64/26/25 39/21/25
f 43/27/26 70/28/26 65/29/26 40/19/26
f 40/19/27 41/20/27 42/30/27 43/27/27
f 39/21/2 43/27/2 42/30/2 38/23/2
f 34/3/28 40/19/28 65/29/28 56/25/28
f 71/31/1 74/34/1 45/33/1 44/32/1
f 48/24/15 71/35/15 44/14/15 29/2/15
f 50/1/1 47/2/1 57/3/1 58/4/1
f 46/5/2 49/6/2 52/7/2 51/8/2
f 53/9/4 46/10/4 51/11/4 55/12/4
f 47/2/3 50/1/3 73/13/3 72/14/3
f 54/15/2 53/9/2 60/16/2 61/17/2
f 46/10/12 53/9/12 54/15/12 49/18/12
f 58/4/29 57/3/29 66/19/29 67/20/29
f 63/21/30 60/16/30 59/22/30 62/23/30
f 47/2/1 48/24/1 56/25/1 57/3/1
f 53/9/2 55/12/2 59/22/2 60/16/2
f 64/26/2 63/21/2 69/27/2 70/28/2
f 60/16/31 63/21/31 64/26/31 61/17/31
f 69/27/32 66/19/32 65/29/32 70/28/32
f 66/19/33 69/27/33 68/30/33 67/20/33
f 63/21/2 62/23/2 68/30/2 69/27/2
f 57/3/34 56/25/34 65/29/34 66/19/34
f 71/31/1 72/32/1 73/33/1 74/34/1
f 48/24/5 47/2/5 72/14/5 71/35/5
