<svg height="2048" xmlns:algsvg="http://dtd.allegorithmic.com/algsvg.dtd" width="2048" version="1.0" xmlns="http://www.w3.org/2000/svg" algsvg:version="1.0">
 <path fill="rgb(255,0,0)" d="M0.08426,0.078744 L0.08426,0.188452 L0.100166,0.191683 L0.108404,0.193381 L0.136663,0.193381 L0.144901,0.191683 L0.160807,0.188452 L0.160807,0.078744 L0.144901,0.081975 L0.136663,0.083673 L0.108404,0.083673 L0.100166,0.081975 L0.08426,0.078744 Z" transform="matrix(2048,0,0,-2048,0,2048)"/>
 <path fill="rgb(255,0,0)" d="M0.112979,0.233528 L0.112979,0.291307 L0.122709,0.291307 L0.128331,0.287726 L0.125837,0.293907 L0.125837,0.303638 L0.154095,0.303638 L0.154095,0.293907 L0.151601,0.287726 L0.157223,0.291307 L0.166953,0.291307 L0.166953,0.233528 L0.157223,0.233528 L0.151601,0.237109 L0.154095,0.230927 L0.154095,0.221197 L0.125837,0.221197 L0.125837,0.230927 L0.128331,0.237109 L0.122709,0.233528 L0.112979,0.233528 Z" transform="matrix(2048,0,0,-2048,0,2048)"/>
 <path fill="rgb(255,0,0)" d="M0.213501,0.382663 L0.213548,0.373238 L0.213708,0.340891 L0.213869,0.308544 L0.213912,0.299958 L0.21985,0.299988 L0.236757,0.300072 L0.267637,0.300225 L0.284544,0.300309 L0.290483,0.300338 L0.29044,0.308925 L0.29028,0.341271 L0.290119,0.373618 L0.290072,0.383043 L0.284133,0.383014 L0.267226,0.38293 L0.236347,0.382777 L0.21944,0.382693 L0.213501,0.382663 Z" transform="matrix(2048,0,0,-2048,0,2048)"/>
 <path fill="rgb(255,0,0)" d="M0.242581,0.065406 L0.242581,0.251288 L0.246071,0.259439 L0.258053,0.264024 L0.286312,0.264024 L0.298294,0.259439 L0.301784,0.251288 L0.301784,0.065406 L0.242581,0.065406 Z" transform="matrix(2048,0,0,-2048,0,2048)"/>
 <path fill="rgb(255,0,0)" d="M0.437496,0.34113 L0.441885,0.323259 L0.444918,0.31091 L0.460057,0.229434 L0.461207,0.21383 L0.472771,0.056906 L0.473559,0.046201 L0.51479,0.056327 L0.556021,0.066454 L0.578152,0.068085 L0.618573,0.071063 L0.640704,0.072694 L0.682974,0.06872 L0.725243,0.064746 L0.724455,0.075452 L0.712892,0.232376 L0.711742,0.24798 L0.714775,0.330795 L0.715965,0.343456 L0.717687,0.361776 L0.721481,0.402129 L0.679211,0.406102 L0.636941,0.410076 L0.633147,0.369724 L0.631425,0.351403 L0.630235,0.338743 L0.627202,0.255928 L0.628352,0.240323 L0.670622,0.236349 L0.682185,0.079425 L0.639915,0.083399 L0.617784,0.081768 L0.577363,0.07879 L0.555232,0.077159 L0.514001,0.067032 L0.502438,0.223956 L0.543669,0.234083 L0.542519,0.249688 L0.52738,0.331164 L0.524347,0.343513 L0.519957,0.361383 L0.478727,0.351256 L0.437496,0.34113 Z" transform="matrix(2048,0,0,-2048,0,2048)"/>
 <path fill="rgb(255,0,0)" d="M0.673558,0.501808 L0.674931,0.507586 L0.678839,0.524035 L0.685978,0.554078 L0.689887,0.570528 L0.69126,0.576306 L0.70605,0.569451 L0.706316,0.585751 L0.715485,0.583572 L0.746956,0.576093 L0.778428,0.568615 L0.786781,0.56663 L0.779686,0.551954 L0.795979,0.551422 L0.794606,0.545644 L0.790698,0.529195 L0.783559,0.499152 L0.77965,0.482702 L0.778277,0.476924 L0.763487,0.483779 L0.763221,0.46748 L0.754867,0.469465 L0.723396,0.476943 L0.691925,0.484421 L0.682755,0.4866 L0.689851,0.501276 L0.673558,0.501808 ZM0.770785,0.548483 L0.741985,0.555326 L0.713185,0.562169 L0.709608,0.547116 L0.703076,0.519623 L0.699499,0.50457 L0.728298,0.497727 L0.757098,0.490883 L0.760675,0.505936 L0.767208,0.53343 L0.770785,0.548483 Z" transform="matrix(2048,0,0,-2048,0,2048)"/>
 <path fill="rgb(255,0,0)" d="M0.850374,0.411916 L0.831014,0.309102 L0.852719,0.288641 L0.864402,0.296745 L0.889165,0.297659 L0.899021,0.289727 L0.920245,0.30566 L0.924257,0.411084 L0.909091,0.438194 L0.909053,0.450162 L0.904078,0.509974 L0.899697,0.51796 L0.887063,0.521431 L0.858566,0.518853 L0.846863,0.5131 L0.844144,0.504533 L0.849605,0.446981 L0.850392,0.437122 L0.850374,0.411916 ZM0.917006,0.410125 L0.913754,0.308222 L0.899695,0.305932 L0.891102,0.30443 L0.861483,0.303576 L0.85279,0.304979 L0.83803,0.3101 L0.857647,0.411104 L0.861172,0.424888 L0.866483,0.430529 L0.896084,0.428729 L0.902801,0.421128 L0.917006,0.410125 ZM0.893757,0.448423 L0.865371,0.447695 L0.859868,0.505889 L0.888357,0.508401 L0.893757,0.448423 Z" transform="matrix(2048,0,0,-2048,0,2048)"/>
 <path fill="rgb(0,255,0)" d="M0.068363,0.484102 L0.075063,0.54515 L0.079397,0.568005 L0.083811,0.589533 L0.088825,0.699281 L0.116868,0.698301 L0.134236,0.678162 L0.13621,0.703686 L0.136596,0.731509 L0.141475,0.731377 L0.156985,0.725276 L0.185949,0.725428 L0.201381,0.731878 L0.206255,0.73211 L0.207368,0.703916 L0.209228,0.677424 L0.227112,0.69725 L0.255427,0.697591 L0.2574,0.586962 L0.261636,0.564439 L0.26452,0.540954 L0.26806,0.478935 L0.239735,0.477436 L0.208409,0.476482 L0.203088,0.450738 L0.201903,0.423607 L0.197053,0.423995 L0.182217,0.430821 L0.154483,0.430516 L0.13963,0.423111 L0.134792,0.422589 L0.132358,0.450477 L0.127298,0.47854 L0.096417,0.481177 L0.068363,0.484102 Z" transform="matrix(2048,0,0,-2048,0,2048)"/>
 <path fill="rgb(0,255,0)" d="M0.147439,0.831474 L0.147439,0.836345 L0.147443,0.853108 L0.147448,0.882716 L0.147451,0.89948 L0.147452,0.90435 L0.259364,0.90433 L0.282454,0.904326 L0.305543,0.904322 L0.366994,0.90431 L0.366993,0.89944 L0.36699,0.882676 L0.366984,0.853068 L0.366981,0.836304 L0.36698,0.831434 L0.30553,0.831445 L0.282441,0.83145 L0.259351,0.831454 L0.147439,0.831474 Z" transform="matrix(2048,0,0,-2048,0,2048)"/>
 <path fill="rgb(0,0,255)" d="M0.58114,0.598477 L0.600569,0.564826 L0.639426,0.564826 L0.658854,0.598477 L0.639426,0.632128 L0.600569,0.632128 L0.58114,0.598477 Z" transform="matrix(2048,0,0,-2048,0,2048)"/>
 <path fill="rgb(0,0,255)" d="M0.608644,0.772977 L0.612628,0.711446 L0.634938,0.712651 L0.657571,0.714019 L0.680345,0.715934 L0.703097,0.718484 L0.725687,0.721581 L0.748009,0.724947 L0.739355,0.786586 L0.71895,0.854306 L0.720847,0.861688 L0.719785,0.866176 L0.715318,0.871291 L0.700122,0.915794 L0.696962,0.917147 L0.686174,0.909856 L0.673623,0.90562 L0.660529,0.903298 L0.647135,0.902592 L0.633527,0.903716 L0.620437,0.90815 L0.617599,0.905962 L0.614312,0.860547 L0.611146,0.854172 L0.611321,0.84962 L0.614811,0.843472 L0.608644,0.772977 Z" transform="matrix(2048,0,0,-2048,0,2048)"/>
 <path fill="rgb(0,0,255)" d="M0.667675,0.643303 L0.679473,0.622868 L0.703069,0.622868 L0.714866,0.643303 L0.703069,0.663737 L0.679473,0.663737 L0.667675,0.643303 Z" transform="matrix(2048,0,0,-2048,0,2048)"/>
 <path fill="rgb(0,0,255)" d="M0.820469,0.757904 L0.820469,0.899478 L0.911797,0.899478 L0.911797,0.757904 L0.820469,0.757904 Z" transform="matrix(2048,0,0,-2048,0,2048)"/>
 <path fill="rgb(255,255,0)" d="M0.299453,0.473682 L0.299453,0.602958 L0.329415,0.602958 L0.329415,0.728457 L0.350076,0.728457 L0.373458,0.716087 L0.366678,0.741656 L0.366678,0.762317 L0.424881,0.762317 L0.424881,0.741656 L0.418101,0.716087 L0.441483,0.728457 L0.462143,0.728457 L0.462143,0.602958 L0.492106,0.602958 L0.492106,0.473682 L0.418101,0.473682 L0.42488,0.451305 L0.42488,0.400682 L0.366678,0.400682 L0.366678,0.451305 L0.373458,0.473682 L0.299453,0.473682 Z" transform="matrix(2048,0,0,-2048,0,2048)"/>
 <path fill="rgb(255,255,0)" d="M0.52852,0.400682 L0.52852,0.685419 L0.563633,0.685419 L0.563633,0.650306 L0.563632,0.55992 L0.563632,0.400682 L0.52852,0.400682 Z" transform="matrix(2048,0,0,-2048,0,2048)"/>
 <path fill="rgb(255,0,255)" d="M0.440292,0.823801 L0.444276,0.762269 L0.466586,0.763474 L0.489219,0.764842 L0.511993,0.766757 L0.534745,0.769307 L0.557334,0.772404 L0.579657,0.77577 L0.571003,0.837409 L0.550598,0.90513 L0.552495,0.912512 L0.551433,0.916999 L0.546966,0.922114 L0.531769,0.966617 L0.52861,0.96797 L0.517822,0.96068 L0.50527,0.956443 L0.492177,0.954122 L0.478782,0.953416 L0.465175,0.954539 L0.452085,0.958973 L0.449247,0.956786 L0.44596,0.91137 L0.442794,0.904995 L0.442969,0.900443 L0.446459,0.894295 L0.440292,0.823801 Z" transform="matrix(2048,0,0,-2048,0,2048)"/>
 <path fill="rgb(255,0,255)" d="M0.58114,0.499819 L0.600569,0.466168 L0.639426,0.466168 L0.658854,0.499819 L0.639426,0.53347 L0.600569,0.53347 L0.58114,0.499819 Z" transform="matrix(2048,0,0,-2048,0,2048)"/>
 <path fill="rgb(255,0,255)" d="M0.733627,0.689469 L0.745425,0.669035 L0.769021,0.669035 L0.780819,0.689469 L0.769021,0.709904 L0.745425,0.709904 L0.733627,0.689469 Z" transform="matrix(2048,0,0,-2048,0,2048)"/>
 <path fill="rgb(255,0,255)" d="M0.820469,0.589726 L0.820469,0.7313 L0.911797,0.7313 L0.911797,0.589726 L0.820469,0.589726 Z" transform="matrix(2048,0,0,-2048,0,2048)"/>
</svg>
